{"title":"Cloud Atlas (2012) DVD5","uid":7917951,"size":4694575104,"categoryP":"video","categoryS":"movies_dvdr","magnet":"?xt=urn:btih:8c4b06e920339dc57be3d28f7e150c6733a1e5db&amp;dn=Cloud+Atlas+%282012%29+DVD5&amp;tr=udp%3A%2F%2Ftracker.openbittorrent.com%3A80&amp;tr=udp%3A%2F%2Fopen.demonii.com%3A1337&amp;tr=udp%3A%2F%2Ftracker.coppersurfer.tk%3A6969&amp;tr=udp%3A%2F%2Fexodus.desync.com%3A6969","seeders":0,"leechers":0,"uploader":"yfjfrj","files":-1,"time":1355410713,"description":"                  WARNING!!! RUSSIAN AUDIO ONLY!!!!!!\n\n\nAn exploration of how the actions of individual lives impact one another in the past, present and future, as one soul is shaped from a killer into a hero, and an act of kindness ripples across centuries to inspire a revolution. \n\n Directors: Tom Tykwer, Andy Wachowski \n Writers: David Mitchell (novel), Lana Wachowski (written for the screen by)\n Stars: Tom Hanks, Halle Berry and Hugh Grant \n\n\nDVDInfo\nTitle: Cloud.Atlas.(2012).DVD5\nSize: 4.37 Gb ( 4Â 584Â 546,00 KBytes ) - DVD-5\nEnabled regions: 1, 2, 3, 4, 5, 6, 7, 8\n\nVTS_01 :\n  Play Length: 00:00:00\n  Video: PAL 4:3 (720x576) VBR\n  Audio:\n      Not specified (Dolby AC3, 2 ch)\n\nVTS_02 :\n  Play Length: 00:00:00\n  Video: PAL 16:9 (720x576) VBR, Auto Letterboxed\n  Audio:\n      Not specified (Dolby AC3, 6 ch)\n\nVTS_03 :\n  Play Length: 00:00:00\n  Video: PAL 16:9 (720x576) VBR, Auto Letterboxed\n  Audio:\n      Russian (Dolby AC3, 2 ch)\n      Russian (Dolby AC3, 2 ch)\n\nVTS_04 :\n  Play Length: 02:45:05\n  Video: PAL 16:9 (720x576) VBR, Auto Letterboxed\n  Audio:\n      Russian (Dolby AC3, 6 ch)\n\nVTS_05 :\n  Play Length: 00:00:00\n  Video: PAL 16:9 (720x576) VBR, Auto Letterboxed\n  Audio:\n      Russian (Dolby AC3, 2 ch)\n      Russian (Dolby AC3, 2 ch)\n\n* Menus Information *\n\nVIDEO_TS Menu\nVideo:\n      NTSC 4:3 (720x480) VBR\n      Auto Pan&amp;Scan, Auto Letterboxed\nEnglish Language Unit :\n      Title Menu\n\nVTS_01 Menu\nVideo:\n      PAL 16:9 (720x576) VBR\n      Auto Letterboxed\nAudio:\n      Not specified (Dolby AC3, 6 ch)\nEnglish Language Unit :\n      Root Menu\n      Chapter (PTT) Menu\n\nVTS_02 Menu\nVideo:\n      NTSC 4:3 (720x480) VBR\n      Auto Pan&amp;Scan, Auto Letterboxed\nEnglish Language Unit :\n      Root Menu\n      Chapter (PTT) Menu\n\nVTS_03 Menu\nVideo:\n      NTSC 4:3 (720x480) VBR\n      Auto Pan&amp;Scan, Auto Letterboxed\nEnglish Language Unit :\n      Root Menu\n      Chapter (PTT) Menu\n\nVTS_04 Menu\nVideo:\n      NTSC 4:3 (720x480) VBR\n      Auto Pan&amp;Scan, Auto Letterboxed\nEnglish Language Unit :\n      Root Menu\n      Chapter (PTT) Menu\n\nVTS_05 Menu\nVideo:\n      NTSC 4:3 (720x480) VBR\n      Auto Pan&amp;Scan, Auto Letterboxed\nEnglish Language Unit :\n      Root Menu\n      Chapter (PTT) Menu\n\nMediaInfo 0.7.61\nGeneral\nComplete name                            : K:tempCloud.Atlas.(2012).DVD5VIDEO_TSVTS_04_1.VOB\nFormat                                   : MPEG-PS\nFile size                                : 1 024 MiB\nDuration                                 : 35mn 57s\nOverall bit rate mode                    : Variable\nOverall bit rate                         : 3 981 Kbps\n\nVideo\nID                                       : 224 (0xE0)\nFormat                                   : MPEG Video\nFormat version                           : Version 2\nFormat profile                           : Main@Main\nFormat settings, BVOP                    : Yes\nFormat settings, Matrix                  : Custom\nFormat settings, GOP                     : Variable\nDuration                                 : 35mn 57s\nBit rate mode                            : Variable\nBit rate                                 : 3 454 Kbps\nMaximum bit rate                         : 6 725 Kbps\nWidth                                    : 720 pixels\nHeight                                   : 576 pixels\nDisplay aspect ratio                     : 16:9\nFrame rate                               : 25.000 fps\nStandard                                 : PAL\nColor space                              : YUV\nChroma subsampling                       : 4:2:0\nBit depth                                : 8 bits\nScan type                                : Interlaced\nScan order                               : Top Field First\nCompression mode                         : Lossy\nBits/(Pixel*Frame)                       : 0.333\nStream size                              : 888 MiB (87%)\n\nAudio\nID                                       : 189 (0xBD)-128 (0x80)\nFormat                                   : AC-3\nFormat/Info                              : Audio Coding 3\nMode extension                           : CM (complete main)\nFormat settings, Endianness              : Big\nMuxing mode                              : DVD-Video\nDuration                                 : 35mn 57s\nBit rate mode                            : Constant\nBit rate                                 : 448 Kbps\nChannel(s)                               : 6 channels\nChannel positions                        : Front: L C R, Side: L R, LFE\nSampling rate                            : 48.0 KHz\nBit depth                                : 16 bits\nCompression mode                         : Lossy\nStream size                              : 115 MiB (11%)\n\nMenu\n &lt;a href=&quot;\nhttp://img845.imageshack.us/img845/536/vlcsnap2012121308h06m19.png&quot; rel=&quot;nofollow&quot; target=&quot;_NEW&quot;&gt;\nhttp://img845.imageshack.us/img845/536/vlcsnap2012121308h06m19.png&lt;/a&gt; &lt;a href=&quot;\nhttp://img839.imageshack.us/img839/3965/vlcsnap2012121308h02m35.png&quot; rel=&quot;nofollow&quot; target=&quot;_NEW&quot;&gt;\nhttp://img839.imageshack.us/img839/3965/vlcsnap2012121308h02m35.png&lt;/a&gt; &lt;a href=&quot;\nhttp://img213.imageshack.us/img213/8544/vlcsnap2012121308h03m18.png&quot; rel=&quot;nofollow&quot; target=&quot;_NEW&quot;&gt;\nhttp://img213.imageshack.us/img213/8544/vlcsnap2012121308h03m18.png&lt;/a&gt; &lt;a href=&quot;\nhttp://img821.imageshack.us/img821/9788/vlcsnap2012121308h05m11.png&quot; rel=&quot;nofollow&quot; target=&quot;_NEW&quot;&gt;\nhttp://img821.imageshack.us/img821/9788/vlcsnap2012121308h05m11.png&lt;/a&gt; &lt;a href=&quot;\nhttp://img607.imageshack.us/img607/5307/vlcsnap2012121308h06m58.png&quot; rel=&quot;nofollow&quot; target=&quot;_NEW&quot;&gt;\nhttp://img607.imageshack.us/img607/5307/vlcsnap2012121308h06m58.png&lt;/a&gt; &lt;a href=&quot;\nhttp://img267.imageshack.us/img267/9793/vlcsnap2012121308h03m12.png&quot; rel=&quot;nofollow&quot; target=&quot;_NEW&quot;&gt;\nhttp://img267.imageshack.us/img267/9793/vlcsnap2012121308h03m12.png&lt;/a&gt; &lt;a href=&quot;\nhttp://img577.imageshack.us/img577/9607/vlcsnap2012121308h05m47.png&quot; rel=&quot;nofollow&quot; target=&quot;_NEW&quot;&gt;\nhttp://img577.imageshack.us/img577/9607/vlcsnap2012121308h05m47.png&lt;/a&gt; &lt;a href=&quot;\nhttp://img831.imageshack.us/img831/9788/vlcsnap2012121308h05m11.png&quot; rel=&quot;nofollow&quot; target=&quot;_NEW&quot;&gt;\nhttp://img831.imageshack.us/img831/9788/vlcsnap2012121308h05m11.png&lt;/a&gt;\n\n","torrent":{"xt":"urn:btih:8c4b06e920339dc57be3d28f7e150c6733a1e5db","amp;dn":"Cloud+Atlas+%282012%29+DVD5","amp;tr":["udp%3A%2F%2Ftracker.openbittorrent.com%3A80","udp%3A%2F%2Fopen.demonii.com%3A1337","udp%3A%2F%2Ftracker.coppersurfer.tk%3A6969","udp%3A%2F%2Fexodus.desync.com%3A6969"],"infoHash":"8c4b06e920339dc57be3d28f7e150c6733a1e5db","infoHashBuffer":{"type":"Buffer","data":[140,75,6,233,32,51,157,197,123,227,210,143,126,21,12,103,51,161,229,219]},"announce":[],"urlList":[]}}